PathFileType	4	(X/Y/Z)	s09c0101.trc
DataRate	CameraRate	NumFrames	NumMarkers	Units	OrigDataRate	OrigDataStartFrame	OrigNumFrames
200	200	4	50	mm	200	1500	2000
Frame#	Time	racr			lacr			c7			jug			rlel			rdr			llel			ldr			s2			lic			ric			lasi			rasi			rpsi			lpsi			rgt			lgt			rth1			rth2			rth3			rth4			rlfc			rmfc			rsh1			rsh2			rsh3			rsh4			rlmal			rmmal			rcal			rtoe			rmt5			lth1			lth2			lth4			lth3			llfc			lmfc			llmal			lmmal			lcal			lmt5			lsh1			lsh2			lsh3			lsh4			ltoe			SBIKE			LBIKE			RBIKE			
		X1	Y1	Z1	X2	Y2	Z2	X3	Y3	Z3	X4	Y4	Z4	X5	Y5	Z5	X6	Y6	Z6	X7	Y7	Z7	X8	Y8	Z8	X9	Y9	Z9	X10	Y10	Z10	X11	Y11	Z11	X12	Y12	Z12	X13	Y13	Z13	X14	Y14	Z14	X15	Y15	Z15	X16	Y16	Z16	X17	Y17	Z17	X18	Y18	Z18	X19	Y19	Z19	X20	Y20	Z20	X21	Y21	Z21	X22	Y22	Z22	X23	Y23	Z23	X24	Y24	Z24	X25	Y25	Z25	X26	Y26	Z26	X27	Y27	Z27	X28	Y28	Z28	X29	Y29	Z29	X30	Y30	Z30	X31	Y31	Z31	X32	Y32	Z32	X33	Y33	Z33	X34	Y34	Z34	X35	Y35	Z35	X36	Y36	Z36	X37	Y37	Z37	X38	Y38	Z38	X39	Y39	Z39	X40	Y40	Z40	X41	Y41	Z41	X42	Y42	Z42	X43	Y43	Z43	X44	Y44	Z44	X45	Y45	Z45	X46	Y46	Z46	X47	Y47	Z47	X48	Y48	Z48	X49	Y49	Z49	X50	Y50	Z50	
1500	7.5000	526.287433	1279.358766	-93.908291	591.852942	1255.835027	-373.820769	531.791836	1294.271822	-235.586061	505.928606	1152.514644	-231.271509	501.294329	1041.186969	12.331604	686.520129	881.659558	-50.236606	553.204496	1048.073250	-555.214846	696.066938	874.924517	-454.663448	40.456633	1120.487188	-286.702736	184.054366	1103.713053	-419.559128	171.187554	1140.251039	-127.802842	220.160286	1052.710970	-386.866736	216.389817	1085.944576	-139.267506	62.735734	1161.218634	-228.193729	71.390819	1154.954171	-337.988451	167.373730	1026.484611	-75.475372	138.885122	961.925217	-446.075753	293.711089	979.626251	-90.237124	379.250928	970.863330	-105.868832	449.900395	917.236561	-107.005607	387.968838	993.443050	-133.889929	524.465253	839.925613	-140.517985	500.150395	813.437391	-239.682657	446.262181	782.181446	-103.871296	396.956370	708.069223	-109.299876	318.463105	669.245322	-100.320821	415.647877	687.666379	-137.792302	239.948765	601.387786	-89.346378	243.570351	602.383806	-165.592200	161.081165	630.673818	-123.998043	324.082337	421.872429	-131.372023	261.206607	474.838935	-65.926342	210.279989	845.304833	-441.416128	272.541003	787.954216	-432.335763	303.342581	806.184036	-419.755892	298.257403	701.473629	-422.746589	330.319973	611.577644	-402.674698	334.549422	597.802965	-305.580188	259.758373	253.114319	-411.912388	279.574946	260.248238	-341.584106	191.814168	227.939383	-376.270640	352.018758	156.918637	-432.809634	302.578554	514.650760	-427.597836	312.721313	429.214357	-419.809045	277.769136	347.474457	-418.242428	338.676075	427.691811	-389.076086	443.811618	161.299374	-361.732928	-64.903849	852.902996	-242.126516	21.272645	83.508622	-442.284113	21.103678	84.031293	-44.213563	
1501	7.5050	525.462545	1279.833231	-89.863456	592.744692	1256.401173	-369.280993	532.137442	1294.740782	-230.870856	506.058129	1152.879824	-227.549951	503.216800	1041.406979	15.608845	687.143576	881.634054	-48.419322	553.065263	1049.735334	-551.970361	696.364631	875.114016	-453.472651	40.891386	1121.236934	-286.891847	185.772361	1104.269843	-418.500465	171.170690	1140.930865	-127.179949	221.272681	1053.350039	-385.683662	216.282375	1086.399217	-138.381404	62.987018	1161.807378	-228.132514	72.430083	1155.834867	-338.009458	167.376006	1028.269419	-75.466372	139.663902	962.191246	-446.425161	294.052984	984.062723	-91.061671	379.762804	976.251778	-107.272400	451.003349	924.078370	-108.136252	387.883460	999.033217	-135.355823	527.977313	847.158869	-142.710229	502.644540	820.094153	-239.732338	449.454602	789.654722	-104.880589	401.463837	714.592682	-109.626862	323.600912	674.536397	-100.444504	420.788292	694.228239	-137.469035	246.526436	604.839558	-89.105436	249.406140	606.453001	-165.786169	165.435723	631.976570	-123.620689	335.180631	428.631626	-131.397230	270.648445	479.571236	-65.895194	208.463084	845.373681	-441.692598	269.829177	786.958102	-432.991587	300.979222	804.791932	-420.254708	294.098171	700.002770	-423.439406	324.512832	609.510048	-403.519284	329.395356	595.599013	-306.856585	252.344841	251.588659	-411.809762	272.771381	258.383604	-341.911592	184.149655	228.047465	-375.877029	342.696027	153.554002	-432.638539	296.295619	512.959998	-428.042000	306.040377	427.477853	-420.174223	270.746630	345.922719	-418.447780	332.252640	425.897883	-389.666770	434.511334	155.645672	-361.602337	-64.912894	853.018151	-242.043807	21.286949	83.559397	-442.256458	21.138930	83.975888	-44.152045	
1502	7.5100	524.747286	1280.466524	-86.118297	593.618216	1256.912594	-364.821389	532.338922	1295.139639	-226.480403	506.065791	1153.266448	-223.910122	505.147865	1041.834478	18.809298	687.905543	881.363211	-46.805297	552.830033	1051.400574	-548.735078	696.571765	875.533865	-452.126644	40.983589	1122.326031	-286.776511	187.236133	1104.960831	-417.358931	170.952770	1141.574520	-126.391927	222.170863	1054.006670	-384.446740	216.119717	1086.861938	-137.299225	63.185545	1162.465235	-227.876439	73.352426	1156.690512	-337.674642	167.479900	1030.300450	-74.962261	140.246136	962.713659	-446.879869	294.334650	988.444753	-91.609637	379.937571	981.554344	-108.432592	451.972590	930.382681	-109.309207	387.608666	1004.250130	-136.711068	529.487993	855.289584	-142.321996	505.084187	826.606516	-240.452492	452.319114	796.396848	-105.802740	405.260544	720.267932	-110.294039	328.659718	678.902095	-100.487569	424.553274	699.996928	-138.292545	252.823423	607.537458	-88.878430	255.238148	609.800938	-165.460565	170.008691	632.732538	-123.412360	346.380844	435.022776	-131.470944	280.366086	483.710943	-65.819655	206.644159	845.668098	-442.008214	267.166327	786.245377	-433.614505	298.627508	803.682546	-421.059219	290.119511	698.988081	-424.105289	319.100923	607.972538	-404.304966	325.292999	594.194319	-307.425602	244.795285	250.781428	-412.076446	265.818471	257.388596	-342.624844	176.275519	228.703965	-375.443622	333.016464	150.771230	-432.391095	290.407489	511.821403	-428.371976	299.541461	426.445291	-420.496753	263.648110	345.028149	-418.543739	325.860225	424.517763	-390.185610	424.883802	150.635085	-361.493571	-64.923586	853.072662	-241.917309	21.285803	83.651368	-442.218708	21.128732	83.990519	-44.153130	
1503	7.5150	524.194545	1281.121383	-82.701014	594.415203	1257.352602	-360.362700	532.475577	1295.606734	-222.028218	505.961249	1153.671802	-220.366641	507.396685	1041.985293	21.542617	688.718653	881.127159	-45.591008	552.475828	1053.086475	-545.483788	696.803895	876.005596	-450.810133	40.869302	1124.058371	-286.571820	188.482772	1105.841210	-416.187181	170.808312	1142.261139	-125.667909	222.892035	1054.814017	-383.230905	215.781167	1087.260006	-136.256059	63.344615	1163.299630	-227.423856	74.099456	1157.765553	-337.322289	167.541668	1032.498331	-74.345084	140.471531	963.270442	-447.176728	294.549670	992.586290	-92.102874	380.069930	986.487731	-109.458359	453.114099	936.348246	-110.881973	387.287223	1009.168956	-137.846729	531.997870	862.374163	-142.329725	507.252406	832.769214	-241.109189	454.865365	802.407931	-106.614224	409.285389	725.217695	-110.572937	333.548305	682.444711	-100.450007	428.869551	705.161905	-138.446868	258.894383	609.531688	-88.679692	261.013169	612.174355	-165.151121	175.034499	632.463827	-122.600045	357.713112	441.028884	-131.606834	290.130390	487.368199	-65.774251	204.768413	846.069602	-442.369269	264.349920	785.693175	-433.869221	296.315932	802.856167	-421.901237	286.307673	698.326150	-424.783721	314.183439	607.062258	-405.074099	321.805427	593.307351	-307.889102	236.882139	250.466573	-412.109505	258.441234	256.628624	-343.067069	168.076608	229.877973	-375.191914	323.104011	148.630194	-432.221648	284.990949	511.108783	-428.589353	293.187463	425.553747	-420.636670	256.501108	344.630375	-418.563190	319.756922	423.480031	-390.637321	414.999767	146.350216	-361.441113	-64.946077	853.124968	-241.795137	21.265782	83.719562	-442.187004	21.141128	83.998099	-44.120425	
